<mxfile host="65bd71144e">
    <diagram id="QIK1GThsjD4CdZ1z5e2j" name="Page-1">
        <mxGraphModel dx="2981" dy="2320" grid="1" gridSize="10" guides="1" tooltips="1" connect="1" arrows="1" fold="1" page="1" pageScale="1" pageWidth="850" pageHeight="1100" math="0" shadow="0">
            <root>
                <mxCell id="0"/>
                <mxCell id="1" parent="0"/>
                <mxCell id="76" value="" style="rounded=0;whiteSpace=wrap;html=1;fillColor=#fafafa;" vertex="1" parent="1">
                    <mxGeometry x="-850" y="-80" width="1720" height="1190" as="geometry"/>
                </mxCell>
                <mxCell id="6" style="edgeStyle=none;html=1;exitX=0.5;exitY=1;exitDx=0;exitDy=0;strokeWidth=4;fontSize=12;" parent="1" source="2" target="5" edge="1">
                    <mxGeometry relative="1" as="geometry"/>
                </mxCell>
                <mxCell id="2" value="start" style="ellipse;whiteSpace=wrap;html=1;strokeWidth=4;perimeterSpacing=7;fontSize=12;fillColor=none;strokeColor=#9d0b98;" parent="1" vertex="1">
                    <mxGeometry x="85" y="10" width="80" height="60" as="geometry"/>
                </mxCell>
                <mxCell id="10" style="edgeStyle=none;html=1;exitX=0;exitY=0.5;exitDx=0;exitDy=0;entryX=1;entryY=0.5;entryDx=0;entryDy=0;strokeWidth=4;fontSize=12;" parent="1" source="4" target="8" edge="1">
                    <mxGeometry relative="1" as="geometry"/>
                </mxCell>
                <mxCell id="56" style="edgeStyle=none;html=1;exitX=1;exitY=0.5;exitDx=0;exitDy=0;entryX=0;entryY=0.5;entryDx=0;entryDy=0;strokeWidth=4;fontSize=12;" parent="1" source="4" target="45" edge="1">
                    <mxGeometry relative="1" as="geometry"/>
                </mxCell>
                <mxCell id="4" value="Is Payment pre-approved&lt;br&gt;per plan?" style="rhombus;whiteSpace=wrap;html=1;strokeWidth=4;fillWeight=-1;hachureGap=8;fillStyle=cross-hatch;sketch=1;perimeterSpacing=7;fontSize=12;fillColor=none;" parent="1" vertex="1">
                    <mxGeometry x="20" y="215" width="210" height="120" as="geometry"/>
                </mxCell>
                <mxCell id="7" style="edgeStyle=none;html=1;exitX=0.5;exitY=1;exitDx=0;exitDy=0;entryX=0.5;entryY=0;entryDx=0;entryDy=0;strokeWidth=4;fontSize=12;" parent="1" source="5" target="4" edge="1">
                    <mxGeometry relative="1" as="geometry"/>
                </mxCell>
                <mxCell id="5" value="Identify Payment Due" style="rounded=0;whiteSpace=wrap;html=1;strokeWidth=5;perimeterSpacing=7;fontSize=12;fillColor=none;strokeColor=#4FBD07;" parent="1" vertex="1">
                    <mxGeometry x="60" y="110" width="130" height="60" as="geometry"/>
                </mxCell>
                <mxCell id="11" style="edgeStyle=none;html=1;exitX=0.5;exitY=1;exitDx=0;exitDy=0;entryX=0.5;entryY=0;entryDx=0;entryDy=0;strokeWidth=4;fontSize=12;" parent="1" source="8" target="9" edge="1">
                    <mxGeometry relative="1" as="geometry">
                        <Array as="points"/>
                    </mxGeometry>
                </mxCell>
                <mxCell id="8" value="Notify Finance of Due Payment" style="rounded=0;whiteSpace=wrap;html=1;strokeWidth=5;fontSize=12;fillColor=none;strokeColor=#4FBD07;" parent="1" vertex="1">
                    <mxGeometry x="-360" y="240" width="220" height="60" as="geometry"/>
                </mxCell>
                <mxCell id="13" style="edgeStyle=none;html=1;exitX=0.5;exitY=1;exitDx=0;exitDy=0;entryX=0.5;entryY=0;entryDx=0;entryDy=0;strokeWidth=4;fontSize=12;" parent="1" source="9" target="12" edge="1">
                    <mxGeometry relative="1" as="geometry"/>
                </mxCell>
                <mxCell id="9" value="Finance 1 verifies payment against&lt;br&gt;&amp;nbsp;pre-pproved list" style="rounded=0;whiteSpace=wrap;html=1;strokeWidth=4;fontSize=12;fillColor=none;strokeColor=#41cb06;" parent="1" vertex="1">
                    <mxGeometry x="-357.5" y="340" width="215" height="90" as="geometry"/>
                </mxCell>
                <mxCell id="18" style="edgeStyle=none;html=1;exitX=0;exitY=0.5;exitDx=0;exitDy=0;entryX=1;entryY=0.5;entryDx=0;entryDy=0;strokeWidth=4;fontSize=12;" parent="1" source="12" target="14" edge="1">
                    <mxGeometry relative="1" as="geometry"/>
                </mxCell>
                <mxCell id="20" style="edgeStyle=none;html=1;exitX=1;exitY=0.5;exitDx=0;exitDy=0;entryX=0;entryY=0.5;entryDx=0;entryDy=0;strokeWidth=4;fontSize=12;" parent="1" source="12" target="19" edge="1">
                    <mxGeometry relative="1" as="geometry"/>
                </mxCell>
                <mxCell id="12" value="Verified/Confirmed?" style="rhombus;whiteSpace=wrap;html=1;strokeWidth=4;fillWeight=-1;hachureGap=8;fillStyle=cross-hatch;sketch=1;perimeterSpacing=7;fontSize=12;fillColor=none;" parent="1" vertex="1">
                    <mxGeometry x="-337.5" y="480" width="175" height="90" as="geometry"/>
                </mxCell>
                <mxCell id="32" style="edgeStyle=none;html=1;exitX=0.5;exitY=1;exitDx=0;exitDy=0;entryX=0.5;entryY=0;entryDx=0;entryDy=0;strokeWidth=4;fontSize=12;" parent="1" source="14" target="31" edge="1">
                    <mxGeometry relative="1" as="geometry"/>
                </mxCell>
                <mxCell id="14" value="Load payment &amp;amp; Notify Finance 2&lt;br&gt;&amp;nbsp;to release" style="rounded=0;whiteSpace=wrap;html=1;strokeWidth=5;fontSize=12;fillColor=none;strokeColor=#4FBD07;" parent="1" vertex="1">
                    <mxGeometry x="-630" y="495" width="250" height="60" as="geometry"/>
                </mxCell>
                <mxCell id="16" value="YES" style="text;html=1;strokeColor=none;fillColor=none;align=center;verticalAlign=middle;whiteSpace=wrap;rounded=0;strokeWidth=4;fontSize=12;" parent="1" vertex="1">
                    <mxGeometry x="-380" y="495" width="60" height="30" as="geometry"/>
                </mxCell>
                <mxCell id="23" style="edgeStyle=none;html=1;exitX=0.5;exitY=1;exitDx=0;exitDy=0;entryX=0.5;entryY=0.096;entryDx=0;entryDy=0;entryPerimeter=0;strokeWidth=4;fontSize=12;" parent="1" source="19" target="22" edge="1">
                    <mxGeometry relative="1" as="geometry"/>
                </mxCell>
                <mxCell id="19" value="Ask requester for up-to-date&lt;br&gt;&amp;nbsp;list/proof" style="rounded=0;whiteSpace=wrap;html=1;strokeWidth=5;fontSize=12;fillColor=none;strokeColor=#4FBD07;" parent="1" vertex="1">
                    <mxGeometry x="-120" y="495" width="170" height="60" as="geometry"/>
                </mxCell>
                <mxCell id="21" value="NO" style="text;html=1;strokeColor=none;fillColor=none;align=center;verticalAlign=middle;whiteSpace=wrap;rounded=0;strokeWidth=4;fontSize=12;" parent="1" vertex="1">
                    <mxGeometry x="-180" y="500" width="60" height="30" as="geometry"/>
                </mxCell>
                <mxCell id="25" style="edgeStyle=none;html=1;exitX=0;exitY=0.5;exitDx=0;exitDy=0;entryX=1;entryY=0.5;entryDx=0;entryDy=0;strokeWidth=4;fontSize=12;" parent="1" source="22" target="24" edge="1">
                    <mxGeometry relative="1" as="geometry"/>
                </mxCell>
                <mxCell id="27" style="edgeStyle=none;html=1;exitX=0.5;exitY=1;exitDx=0;exitDy=0;entryX=0.463;entryY=0.033;entryDx=0;entryDy=0;entryPerimeter=0;strokeWidth=4;fontSize=12;" parent="1" source="22" target="26" edge="1">
                    <mxGeometry relative="1" as="geometry"/>
                </mxCell>
                <mxCell id="22" value="Proof supplied" style="rhombus;whiteSpace=wrap;html=1;strokeWidth=4;fillWeight=-1;hachureGap=8;fillStyle=cross-hatch;sketch=1;perimeterSpacing=7;fontSize=12;fillColor=none;" parent="1" vertex="1">
                    <mxGeometry x="-106.25" y="580" width="142.5" height="80" as="geometry"/>
                </mxCell>
                <mxCell id="33" style="edgeStyle=none;html=1;exitX=0;exitY=0.5;exitDx=0;exitDy=0;entryX=1;entryY=0.5;entryDx=0;entryDy=0;strokeWidth=4;fontSize=12;" parent="1" source="24" target="31" edge="1">
                    <mxGeometry relative="1" as="geometry"/>
                </mxCell>
                <mxCell id="24" value="Load payments &amp;amp; notify&lt;br&gt;&amp;nbsp;Finance 2 to release" style="rounded=0;whiteSpace=wrap;html=1;strokeWidth=5;fontSize=12;fillColor=none;strokeColor=#4FBD07;" parent="1" vertex="1">
                    <mxGeometry x="-320" y="590" width="160" height="60" as="geometry"/>
                </mxCell>
                <mxCell id="39" style="edgeStyle=none;html=1;exitX=0.5;exitY=1;exitDx=0;exitDy=0;entryX=0.5;entryY=0;entryDx=0;entryDy=0;strokeWidth=4;fontSize=12;" parent="1" source="26" edge="1">
                    <mxGeometry relative="1" as="geometry">
                        <mxPoint x="-30" y="780" as="targetPoint"/>
                    </mxGeometry>
                </mxCell>
                <mxCell id="26" value="Reject Payment &amp;amp; send&lt;br&gt;&amp;nbsp;Rejection note" style="rounded=0;whiteSpace=wrap;html=1;strokeWidth=5;fontSize=12;fillColor=none;strokeColor=#4FBD07;" parent="1" vertex="1">
                    <mxGeometry x="-110" y="690" width="160" height="60" as="geometry"/>
                </mxCell>
                <mxCell id="28" value="NO" style="text;html=1;strokeColor=none;fillColor=none;align=center;verticalAlign=middle;whiteSpace=wrap;rounded=0;strokeWidth=4;fontSize=12;" parent="1" vertex="1">
                    <mxGeometry x="-50" y="660" width="60" height="30" as="geometry"/>
                </mxCell>
                <mxCell id="29" value="YES" style="text;html=1;strokeColor=none;fillColor=none;align=center;verticalAlign=middle;whiteSpace=wrap;rounded=0;strokeWidth=4;fontSize=12;" parent="1" vertex="1">
                    <mxGeometry x="-150" y="590" width="60" height="30" as="geometry"/>
                </mxCell>
                <mxCell id="36" style="edgeStyle=none;html=1;exitX=0.5;exitY=1;exitDx=0;exitDy=0;entryX=0.5;entryY=0;entryDx=0;entryDy=0;strokeWidth=4;fontSize=12;" parent="1" source="31" target="34" edge="1">
                    <mxGeometry relative="1" as="geometry"/>
                </mxCell>
                <mxCell id="31" value="Finance 2 release payment &amp;amp; sends &lt;br&gt;proof of finance 1and request" style="rounded=0;whiteSpace=wrap;html=1;strokeWidth=5;fontSize=12;fillColor=none;strokeColor=#4FBD07;" parent="1" vertex="1">
                    <mxGeometry x="-630" y="590" width="250" height="60" as="geometry"/>
                </mxCell>
                <mxCell id="37" style="edgeStyle=none;html=1;exitX=0.5;exitY=1;exitDx=0;exitDy=0;entryX=0.5;entryY=0;entryDx=0;entryDy=0;strokeWidth=4;fontSize=12;" parent="1" source="34" target="35" edge="1">
                    <mxGeometry relative="1" as="geometry"/>
                </mxCell>
                <mxCell id="34" value="Requester/Admin files PoP records&lt;br&gt;&amp;nbsp;on Accounting System" style="rounded=0;whiteSpace=wrap;html=1;strokeWidth=5;fontSize=12;fillColor=none;strokeColor=#4FBD07;" parent="1" vertex="1">
                    <mxGeometry x="-630" y="690" width="250" height="60" as="geometry"/>
                </mxCell>
                <mxCell id="43" style="edgeStyle=none;html=1;exitX=1;exitY=0.5;exitDx=0;exitDy=0;entryX=0.5;entryY=0;entryDx=0;entryDy=0;strokeWidth=4;fontSize=12;" parent="1" source="35" target="40" edge="1">
                    <mxGeometry relative="1" as="geometry">
                        <Array as="points">
                            <mxPoint x="-205" y="810"/>
                        </Array>
                    </mxGeometry>
                </mxCell>
                <mxCell id="35" value="Send Pop to External Supplier &lt;br&gt;with statement" style="rounded=0;whiteSpace=wrap;html=1;strokeWidth=5;fontSize=12;fillColor=none;strokeColor=#4FBD07;" parent="1" vertex="1">
                    <mxGeometry x="-630" y="780" width="250" height="60" as="geometry"/>
                </mxCell>
                <mxCell id="40" value="" style="ellipse;whiteSpace=wrap;html=1;aspect=fixed;strokeWidth=4;fontSize=12;strokeColor=#ad9705;" parent="1" vertex="1">
                    <mxGeometry x="-230" y="880" width="50" height="50" as="geometry"/>
                </mxCell>
                <mxCell id="41" value="" style="ellipse;whiteSpace=wrap;html=1;aspect=fixed;strokeWidth=4;fontSize=12;fillColor=#e3c800;fontColor=#000000;strokeColor=#B09500;" parent="1" vertex="1">
                    <mxGeometry x="-220" y="890" width="30" height="30" as="geometry"/>
                </mxCell>
                <mxCell id="44" value="&lt;font style=&quot;font-size: 12px;&quot;&gt;YES&lt;/font&gt;" style="text;html=1;strokeColor=none;fillColor=none;align=center;verticalAlign=middle;whiteSpace=wrap;rounded=0;strokeWidth=4;fontSize=12;" parent="1" vertex="1">
                    <mxGeometry x="-75" y="240" width="60" height="30" as="geometry"/>
                </mxCell>
                <mxCell id="57" style="edgeStyle=none;html=1;exitX=0.5;exitY=1;exitDx=0;exitDy=0;entryX=0.5;entryY=0;entryDx=0;entryDy=0;strokeWidth=4;fontSize=12;" parent="1" source="45" target="47" edge="1">
                    <mxGeometry relative="1" as="geometry"/>
                </mxCell>
                <mxCell id="45" value="Prepare motivation for payment &lt;br&gt;&amp;amp; supmit to&amp;nbsp;line&amp;nbsp;manager" style="rounded=0;whiteSpace=wrap;html=1;strokeWidth=5;fontSize=12;fillColor=none;strokeColor=#4FBD07;" parent="1" vertex="1">
                    <mxGeometry x="300" y="245" width="300" height="60" as="geometry"/>
                </mxCell>
                <mxCell id="66" style="edgeStyle=none;html=1;exitX=0.5;exitY=1;exitDx=0;exitDy=0;strokeWidth=4;fontSize=12;entryX=1;entryY=0.5;entryDx=0;entryDy=0;" parent="1" source="46" target="40" edge="1">
                    <mxGeometry relative="1" as="geometry">
                        <mxPoint x="-180" y="830" as="targetPoint"/>
                        <Array as="points">
                            <mxPoint x="205" y="900"/>
                        </Array>
                    </mxGeometry>
                </mxCell>
                <mxCell id="46" value="Notify finance of Due Payment" style="rounded=0;whiteSpace=wrap;html=1;strokeWidth=5;fontSize=12;fillColor=none;strokeColor=#4FBD07;" parent="1" vertex="1">
                    <mxGeometry x="110" y="720" width="190" height="60" as="geometry"/>
                </mxCell>
                <mxCell id="50" style="edgeStyle=none;html=1;exitX=1;exitY=0.5;exitDx=0;exitDy=0;entryX=0;entryY=0.5;entryDx=0;entryDy=0;strokeWidth=4;fontSize=12;" parent="1" source="47" edge="1">
                    <mxGeometry relative="1" as="geometry">
                        <mxPoint x="557.5" y="377.5" as="targetPoint"/>
                    </mxGeometry>
                </mxCell>
                <mxCell id="58" style="edgeStyle=none;html=1;exitX=0.5;exitY=1;exitDx=0;exitDy=0;entryX=0.518;entryY=0.069;entryDx=0;entryDy=0;entryPerimeter=0;strokeWidth=4;fontSize=12;" parent="1" source="47" target="48" edge="1">
                    <mxGeometry relative="1" as="geometry"/>
                </mxCell>
                <mxCell id="47" value="Line Manager&lt;br&gt;&amp;nbsp;approves?" style="rhombus;whiteSpace=wrap;html=1;strokeWidth=4;fillWeight=-1;hachureGap=8;fillStyle=cross-hatch;sketch=1;perimeterSpacing=7;fontSize=12;fillColor=none;" parent="1" vertex="1">
                    <mxGeometry x="387.5" y="335" width="125" height="85" as="geometry"/>
                </mxCell>
                <mxCell id="59" style="edgeStyle=none;html=1;exitX=0.5;exitY=1;exitDx=0;exitDy=0;entryX=0.5;entryY=0;entryDx=0;entryDy=0;strokeWidth=4;fontSize=12;" parent="1" source="48" target="52" edge="1">
                    <mxGeometry relative="1" as="geometry"/>
                </mxCell>
                <mxCell id="60" style="edgeStyle=none;html=1;exitX=0;exitY=0.5;exitDx=0;exitDy=0;entryX=0.5;entryY=0;entryDx=0;entryDy=0;strokeWidth=4;fontSize=12;" parent="1" source="48" target="46" edge="1">
                    <mxGeometry relative="1" as="geometry">
                        <Array as="points">
                            <mxPoint x="205" y="515"/>
                        </Array>
                    </mxGeometry>
                </mxCell>
                <mxCell id="48" value="Within authorized&lt;br&gt;&amp;nbsp;limits?" style="rhombus;whiteSpace=wrap;html=1;strokeWidth=4;fillWeight=-1;hachureGap=8;fillStyle=cross-hatch;sketch=1;perimeterSpacing=7;fontSize=12;fillColor=none;" parent="1" vertex="1">
                    <mxGeometry x="385" y="467.5" width="125" height="95" as="geometry"/>
                </mxCell>
                <mxCell id="51" value="NO" style="text;html=1;strokeColor=none;fillColor=none;align=center;verticalAlign=middle;whiteSpace=wrap;rounded=0;strokeWidth=4;fontSize=12;" parent="1" vertex="1">
                    <mxGeometry x="497.5" y="350" width="60" height="30" as="geometry"/>
                </mxCell>
                <mxCell id="63" style="edgeStyle=none;html=1;exitX=0.5;exitY=1;exitDx=0;exitDy=0;entryX=0.5;entryY=0;entryDx=0;entryDy=0;strokeWidth=4;fontSize=12;" parent="1" source="52" target="55" edge="1">
                    <mxGeometry relative="1" as="geometry"/>
                </mxCell>
                <mxCell id="52" value="Refer to Exco/ Next level&lt;br&gt;&amp;nbsp;Management" style="rounded=0;whiteSpace=wrap;html=1;strokeWidth=5;fontSize=12;fillColor=none;strokeColor=#4FBD07;" parent="1" vertex="1">
                    <mxGeometry x="330" y="610" width="240" height="60" as="geometry"/>
                </mxCell>
                <mxCell id="65" style="edgeStyle=none;html=1;exitX=0.5;exitY=1;exitDx=0;exitDy=0;entryX=0.5;entryY=0;entryDx=0;entryDy=0;strokeWidth=4;fontSize=12;" parent="1" source="54" edge="1">
                    <mxGeometry relative="1" as="geometry">
                        <mxPoint x="450" y="940" as="targetPoint"/>
                    </mxGeometry>
                </mxCell>
                <mxCell id="54" value="Reject Payment" style="rounded=0;whiteSpace=wrap;html=1;strokeWidth=5;fontSize=12;fillColor=none;strokeColor=#4FBD07;" parent="1" vertex="1">
                    <mxGeometry x="340" y="840" width="220" height="60" as="geometry"/>
                </mxCell>
                <mxCell id="61" style="edgeStyle=none;html=1;exitX=0;exitY=0.5;exitDx=0;exitDy=0;entryX=1;entryY=0.633;entryDx=0;entryDy=0;entryPerimeter=0;strokeWidth=4;fontSize=12;" parent="1" source="55" target="46" edge="1">
                    <mxGeometry relative="1" as="geometry"/>
                </mxCell>
                <mxCell id="62" style="edgeStyle=none;html=1;exitX=0.5;exitY=1;exitDx=0;exitDy=0;entryX=0.5;entryY=0;entryDx=0;entryDy=0;strokeWidth=4;fontSize=12;" parent="1" source="55" target="54" edge="1">
                    <mxGeometry relative="1" as="geometry"/>
                </mxCell>
                <mxCell id="55" value="High level&lt;br&gt;&amp;nbsp;approval given?" style="rhombus;whiteSpace=wrap;html=1;strokeWidth=4;fillWeight=-1;hachureGap=8;fillStyle=cross-hatch;sketch=1;perimeterSpacing=7;fontSize=12;fillColor=none;" parent="1" vertex="1">
                    <mxGeometry x="387.5" y="710" width="125" height="95" as="geometry"/>
                </mxCell>
                <mxCell id="67" value="NO" style="text;html=1;strokeColor=none;fillColor=none;align=center;verticalAlign=middle;whiteSpace=wrap;rounded=0;strokeWidth=4;fontSize=12;" parent="1" vertex="1">
                    <mxGeometry x="230" y="245" width="60" height="30" as="geometry"/>
                </mxCell>
                <mxCell id="68" value="YES" style="text;html=1;strokeColor=none;fillColor=none;align=center;verticalAlign=middle;whiteSpace=wrap;rounded=0;strokeWidth=4;fontSize=12;" parent="1" vertex="1">
                    <mxGeometry x="437.5" y="430" width="60" height="30" as="geometry"/>
                </mxCell>
                <mxCell id="69" value="YES" style="text;html=1;strokeColor=none;fillColor=none;align=center;verticalAlign=middle;whiteSpace=wrap;rounded=0;strokeWidth=4;fontSize=12;" parent="1" vertex="1">
                    <mxGeometry x="310" y="490" width="60" height="30" as="geometry"/>
                </mxCell>
                <mxCell id="70" value="NO" style="text;html=1;strokeColor=none;fillColor=none;align=center;verticalAlign=middle;whiteSpace=wrap;rounded=0;strokeWidth=4;fontSize=12;" parent="1" vertex="1">
                    <mxGeometry x="437.5" y="570" width="60" height="30" as="geometry"/>
                </mxCell>
                <mxCell id="71" value="YES" style="text;html=1;strokeColor=none;fillColor=none;align=center;verticalAlign=middle;whiteSpace=wrap;rounded=0;strokeWidth=4;fontSize=12;" parent="1" vertex="1">
                    <mxGeometry x="320" y="730" width="60" height="30" as="geometry"/>
                </mxCell>
                <mxCell id="72" value="NO" style="text;html=1;strokeColor=none;fillColor=none;align=center;verticalAlign=middle;whiteSpace=wrap;rounded=0;strokeWidth=4;fontSize=12;" parent="1" vertex="1">
                    <mxGeometry x="437.5" y="805" width="60" height="30" as="geometry"/>
                </mxCell>
                <mxCell id="73" value="" style="shape=sumEllipse;perimeter=ellipsePerimeter;whiteSpace=wrap;html=1;backgroundOutline=1;strokeWidth=6;fillColor=#a20025;fontColor=#ffffff;strokeColor=#6F0000;" parent="1" vertex="1">
                    <mxGeometry x="430" y="940" width="40" height="40" as="geometry"/>
                </mxCell>
                <mxCell id="74" value="" style="shape=sumEllipse;perimeter=ellipsePerimeter;whiteSpace=wrap;html=1;backgroundOutline=1;strokeWidth=6;fillColor=#a20025;fontColor=#ffffff;strokeColor=#6F0000;" parent="1" vertex="1">
                    <mxGeometry x="-50" y="780" width="40" height="40" as="geometry"/>
                </mxCell>
                <mxCell id="75" value="" style="shape=sumEllipse;perimeter=ellipsePerimeter;whiteSpace=wrap;html=1;backgroundOutline=1;strokeWidth=6;fillColor=#a20025;fontColor=#ffffff;strokeColor=#6F0000;" parent="1" vertex="1">
                    <mxGeometry x="560" y="357.5" width="40" height="40" as="geometry"/>
                </mxCell>
            </root>
        </mxGraphModel>
    </diagram>
</mxfile>